<svg height="18" viewBox="0 0 24 24" fill="none" xmlns="http://www.w3.org/2000/svg" stroke="#000000"><g id="SVGRepo_bgCarrier" stroke-width="0"></g><g id="SVGRepo_tracerCarrier" stroke-linecap="round" stroke-linejoin="round"></g><g id="SVGRepo_iconCarrier"> <path opacity="0.1" d="M3 12C3 4.5885 4.5885 3 12 3C19.4115 3 21 4.5885 21 12C21 19.4115 19.4115 21 12 21C4.5885 21 3 19.4115 3 12Z" fill="#3fff2e"></path> <path d="M3 12C3 4.5885 4.5885 3 12 3C19.4115 3 21 4.5885 21 12C21 19.4115 19.4115 21 12 21C4.5885 21 3 19.4115 3 12Z" stroke="#3fff2e" stroke-width="2"></path> <path d="M9 12L10.6828 13.6828V13.6828C10.858 13.858 11.142 13.858 11.3172 13.6828V13.6828L15 10" stroke="#3fff2e" stroke-width="2" stroke-linecap="round" stroke-linejoin="round"></path> </g></svg>
