<svg height="18" fill="#ffe712" height="200px" width="200px" version="1.1" id="Layer_1" xmlns="http://www.w3.org/2000/svg" xmlns:xlink="http://www.w3.org/1999/xlink" viewBox="0 0 511.999 511.999" xml:space="preserve" stroke="#ffe712"><g id="SVGRepo_bgCarrier" stroke-width="0"></g><g id="SVGRepo_tracerCarrier" stroke-linecap="round" stroke-linejoin="round"></g><g id="SVGRepo_iconCarrier"> <g> <g> <path d="M329.329,160.793c-17.041-10.976-36.464-18.034-56.989-20.501V118.19c0-8.388-6.145-15.747-14.482-16.667 c-9.857-1.086-18.199,6.603-18.199,16.239v22.531c-20.474,2.46-39.851,9.489-56.86,20.418c-3.509,2.254-3.327,7.416,0.336,9.412 c12.298,6.701,22.893,14.584,32.044,23.431c1.022,0.988,2.378,1.552,3.8,1.552h74.61c1.43,0,2.793-0.572,3.817-1.571 c9.398-9.171,19.951-17.042,31.608-23.464C332.613,168.089,332.784,163.018,329.329,160.793z"></path> </g> </g> <g> <g> <path d="M511.916,293.286c-2.24-59.058-50.391-106.767-109.465-108.5c-37.33-1.095-70.743,16.06-92.01,43.001H202.16 c-21.353-26.931-54.843-43.052-89.239-43.052C50.656,184.736,0,235.392,0,297.658s50.656,112.921,112.921,112.921 c38.531,0,68.862-17.176,88.317-42.263h109.857c20.179,25.258,51.153,42.263,87.983,42.263 C462.794,410.579,514.354,357.535,511.916,293.286z M112.749,368.426c-38.743,0-70.264-31.521-70.264-70.264 s31.521-70.264,70.264-70.264s70.264,31.521,70.264,70.264S151.492,368.426,112.749,368.426z M399.251,368.426 c-38.743,0-70.264-31.521-70.264-70.264s31.521-70.264,70.264-70.264c38.743,0,70.264,31.521,70.264,70.264 S437.994,368.426,399.251,368.426z"></path> </g> </g> </g></svg>
